<svg width="16" height="16" viewBox="0 0 16 16" fill="none" xmlns="http://www.w3.org/2000/svg">
<path d="M9.15339 2.33999L10.3267 4.68666C10.4867 5.01333 10.9134 5.32666 11.2734 5.38666L13.4001 5.73999C14.7601 5.96666 15.0801 6.95333 14.1001 7.92666L12.4467 9.57999C12.1667 9.85999 12.0134 10.4 12.1001 10.7867L12.5734 12.8333C12.9467 14.4533 12.0867 15.08 10.6534 14.2333L8.66006 13.0533C8.30006 12.84 7.70673 12.84 7.34006 13.0533L5.34673 14.2333C3.92006 15.08 3.05339 14.4467 3.42673 12.8333L3.90006 10.7867C3.98673 10.4 3.83339 9.85999 3.55339 9.57999L1.90006 7.92666C0.926728 6.95333 1.24006 5.96666 2.60006 5.73999L4.72673 5.38666C5.08006 5.32666 5.50673 5.01333 5.66673 4.68666L6.84006 2.33999C7.48006 1.06666 8.52006 1.06666 9.15339 2.33999Z" stroke="#FFAD49" stroke-width="1.5" stroke-linecap="round" stroke-linejoin="round"/>
</svg>
